<svg width="1080" height="1080" viewBox="0 0 1080 1080" fill="none" xmlns="http://www.w3.org/2000/svg">
<path fill-rule="evenodd" clip-rule="evenodd" d="M575.34 374.25C639.891 374.971 700.115 316.628 755.093 340.173C809.006 363.263 812.463 418.455 793.606 460.501C778.004 495.29 707.185 505.578 666.852 528.83C633.556 548.025 610.691 587.549 568.363 593.699C518.318 600.972 470.033 590.426 427.98 570.198C376.226 545.303 359.552 503.679 343.639 460.534C316.072 385.793 323.727 344.488 398.776 328.039C461.423 326.461 508.279 373.502 575.34 374.25Z" fill="#B5D5A1"/>
<path d="M240.84 695.368V679.816C236.904 690.664 225.864 698.056 212.712 698.056C192.648 698.056 178.152 681.736 178.152 662.152C178.152 643.816 190.632 629.032 209.736 629.032C223.848 629.032 237.384 638.152 240.84 654.376V631.432L236.328 631.048V629.896H249.768V631.048L245.256 631.432V649.096C248.808 637.768 260.232 629.032 274.152 629.032C294.12 629.032 308.808 644.68 308.808 664.744C308.808 683.08 296.328 698.056 277.128 698.056C262.152 698.056 249.576 688.936 245.256 675.304V695.368L249.768 695.848V697H236.328V695.848L240.84 695.368ZM216.072 695.08C229.416 695.08 239.784 685.672 240.84 673V667.816C239.592 648.52 226.728 632.296 207.048 632.296C192.552 632.296 180.84 642.952 180.84 657.448C180.84 677.704 196.104 695.08 216.072 695.08ZM280.488 695.08C294.6 695.08 305.352 684.52 305.352 670.792C305.352 650.152 292.2 632.296 271.464 632.296C256.968 632.296 245.256 642.952 245.256 657.448C245.256 677.704 260.52 695.08 280.488 695.08ZM348.248 627.784L379.16 695.464L383.288 696.04V697H369.848V696.04L373.88 695.752L346.808 635.08L318.68 695.656L324.536 696.04V697H311.096V696.04L316.856 695.656L348.248 627.784ZM409.149 628.072C429.117 628.072 443.805 644.68 443.805 664.744C443.805 683.08 431.325 698.056 412.125 698.056C392.061 698.056 377.565 681.736 377.565 662.152C377.565 643.816 390.045 628.072 409.149 628.072ZM415.485 695.08C429.597 695.08 440.349 684.52 440.349 670.792C440.349 648.424 428.253 631.336 406.461 631.336C391.965 631.336 380.253 642.952 380.253 657.448C380.253 678.568 395.517 695.08 415.485 695.08ZM477.857 630.76V629.8H490.817V630.76L485.249 631.144L458.657 696.424C458.081 698.248 455.297 699.112 454.721 699.112C453.857 699.112 451.648 698.728 450.977 697.288C450.401 696.232 450.881 694.408 451.265 693.064C451.745 694.216 451.937 694.792 452.321 695.464C452.993 696.712 454.049 697.768 455.009 697.672C456.353 697.672 456.641 697.192 457.601 695.176L469.601 665.8L451.073 631.24L446.753 630.76V629.8H459.713V630.76L455.297 631.24L471.329 661.48C471.329 661.48 471.329 661.288 483.617 631.144L477.857 630.76ZM519.139 629.8H574.147V630.76L569.635 631.432L569.731 695.56L574.147 696.04V697H560.803V696.04L565.315 695.56V631.336H528.067V695.56L532.579 696.04V697H519.139V696.04L523.651 695.56V631.24L519.139 630.76V629.8ZM585.982 697H578.014V696.04L582.526 695.56V631.24L578.014 630.76V629.8H591.454V630.76L586.942 631.24V691.048L625.342 629.8H633.31V630.76L628.798 631.24V695.56L633.31 696.04V697H619.87V696.04L624.382 695.56V635.752L585.982 697ZM673.842 627.784L704.754 695.464L708.882 696.04V697H695.442V696.04L699.474 695.752L672.402 635.08L644.274 695.656L650.13 696.04V697H636.69V696.04L642.45 695.656L673.842 627.784ZM748.936 627.784L779.848 695.56L783.976 696.136V697H770.536V696.136L774.568 695.848L760.072 663.304H734.344L719.368 695.56L725.224 696.04V697H711.784V696.136L717.544 695.56L748.936 627.784ZM747.496 635.08L735.208 661.48H759.304L747.496 635.08ZM780.128 629.8H811.904V641.8H810.944L809.12 631.432H798.176V695.56L802.688 696.04V697H789.248V696.04L793.76 695.56V631.432H782.912L781.088 641.8H780.128V629.8ZM815.295 629.8H838.623V641.896H837.759L836.127 631.432H824.223V655.72H830.271L830.943 648.616H831.999L832.191 666.376H831.135L830.271 657.352H824.223V695.56H835.647L836.895 685.96H837.951V697H815.295V696.04L819.807 695.56V631.432L815.295 630.76V629.8ZM898.846 690.376L899.422 685.288C896.35 690.376 886.078 697.96 872.542 697.96C859.102 697.96 843.262 686.728 841.726 666.76C839.998 644.104 855.838 628.648 875.422 628.552C884.158 628.552 891.838 632.488 895.39 635.656L894.046 631.24L894.718 630.952L899.326 640.456L898.462 640.936C894.142 633.448 882.142 629.896 874.462 629.896C859.39 629.896 846.142 642.376 846.142 660.808C846.142 679.144 857.086 695.656 876.382 695.656C885.598 695.656 897.79 688.552 901.054 679.528L902.014 679.816L899.71 690.568L898.846 690.376Z" fill="black"/>
<path d="M468.398 396.495V398.045C501.913 413.289 535.446 435.512 557.81 459.537C557.185 460.612 556.552 461.683 555.912 462.749C528.603 442.762 497.869 428.35 468.398 419.282V442.773C491.307 447.95 515.657 456.816 538.864 469.999C522.383 463.92 504.204 460.205 485.481 459.677C503.516 465.875 523.095 473.887 541.835 483.593C522.021 509.623 497.56 529.021 468.933 536.727C505.015 546.884 555.732 537.677 588.141 513.41C597.559 521.151 605.86 529.491 612.505 538.402V536.827C609.243 525.845 604.532 514.938 598.711 504.288C602.623 500.368 606.092 496.158 609.025 491.669C591.877 506.836 570.005 515.625 542.992 523.915C566.873 510.264 587.493 493.257 603.665 475.287C606.717 471.663 609.665 467.952 612.505 464.16V452.457C589.592 482.74 554.982 509.974 520.264 524.406C557.536 503.541 597.329 463.533 610.942 425.783C599.232 442.451 585.168 457.268 570.156 469.92C587.682 447.391 603.171 423.507 612.505 404.089V396.495H585.074C578.861 416.428 570.903 435.718 561.288 453.353C539.238 429.654 513.658 409.676 490.221 396.495L468.398 396.495ZM518.886 524.91H519.036C518.938 524.95 518.841 524.991 518.743 525.031C518.791 524.991 518.839 524.95 518.886 524.91Z" fill="black"/>
<path d="M340.556 742.18C338.684 742.18 337.004 741.772 335.516 740.956C334.052 740.116 332.9 738.976 332.06 737.536C331.22 736.072 330.8 734.404 330.8 732.532C330.8 730.636 331.22 728.968 332.06 727.528C332.9 726.088 334.052 724.96 335.516 724.144C337.004 723.328 338.684 722.92 340.556 722.92C342.164 722.92 343.616 723.232 344.912 723.856C346.208 724.48 347.228 725.416 347.972 726.664L346.064 727.96C345.416 727 344.612 726.292 343.652 725.836C342.692 725.38 341.648 725.152 340.52 725.152C339.176 725.152 337.964 725.464 336.884 726.088C335.804 726.688 334.952 727.54 334.328 728.644C333.704 729.748 333.392 731.044 333.392 732.532C333.392 734.02 333.704 735.316 334.328 736.42C334.952 737.524 335.804 738.388 336.884 739.012C337.964 739.612 339.176 739.912 340.52 739.912C341.648 739.912 342.692 739.684 343.652 739.228C344.612 738.772 345.416 738.076 346.064 737.14L347.972 738.436C347.228 739.66 346.208 740.596 344.912 741.244C343.616 741.868 342.164 742.18 340.556 742.18ZM356.17 742V724.648L356.818 725.332H349.006V723.1H365.89V725.332H358.078L358.726 724.648V742H356.17ZM369.909 749.164C369.021 749.164 368.169 749.02 367.353 748.732C366.561 748.444 365.877 748.012 365.301 747.436L366.489 745.528C366.969 745.984 367.485 746.332 368.037 746.572C368.613 746.836 369.249 746.968 369.945 746.968C370.785 746.968 371.505 746.728 372.105 746.248C372.729 745.792 373.317 744.976 373.869 743.8L375.093 741.028L375.381 740.632L383.157 723.1H385.677L376.209 744.268C375.681 745.492 375.093 746.464 374.445 747.184C373.821 747.904 373.137 748.408 372.393 748.696C371.649 749.008 370.821 749.164 369.909 749.164ZM374.949 742.54L366.237 723.1H368.901L376.605 740.452L374.949 742.54ZM401.811 740.776V725.332H392.703L392.487 729.544C392.439 730.816 392.355 732.064 392.235 733.288C392.139 734.512 391.959 735.64 391.695 736.672C391.455 737.68 391.107 738.508 390.651 739.156C390.195 739.78 389.607 740.14 388.887 740.236L386.331 739.768C387.075 739.792 387.687 739.528 388.167 738.976C388.647 738.4 389.019 737.62 389.283 736.636C389.547 735.652 389.739 734.536 389.859 733.288C389.979 732.016 390.075 730.72 390.147 729.4L390.399 723.1H404.367V740.776H401.811ZM385.539 746.572V739.768H407.319V746.572H404.907V742H387.951V746.572H385.539ZM412.3 742V723.1H414.856V738.112L427.492 723.1H429.76V742H427.204V726.952L414.604 742H412.3ZM449.289 742V735.196L449.757 735.736H443.349C440.925 735.736 439.029 735.208 437.661 734.152C436.293 733.096 435.609 731.56 435.609 729.544C435.609 727.384 436.341 725.776 437.805 724.72C439.269 723.64 441.225 723.1 443.673 723.1H451.629V742H449.289ZM435.465 742L440.649 734.728H443.313L438.237 742H435.465ZM449.289 734.44V724.576L449.757 725.332H443.745C441.993 725.332 440.625 725.668 439.641 726.34C438.681 727.012 438.201 728.104 438.201 729.616C438.201 732.424 439.989 733.828 443.565 733.828H449.757L449.289 734.44ZM473.415 742.216C472.047 742.216 470.691 742.024 469.347 741.64C468.003 741.256 466.815 740.668 465.783 739.876L466.611 737.968C467.523 738.64 468.579 739.156 469.779 739.516C470.979 739.852 472.167 740.02 473.343 740.02C474.519 739.996 475.539 739.828 476.403 739.516C477.267 739.204 477.939 738.772 478.419 738.22C478.899 737.668 479.139 737.044 479.139 736.348C479.139 735.34 478.683 734.56 477.771 734.008C476.859 733.432 475.611 733.144 474.027 733.144H470.787V731.272H473.847C474.783 731.272 475.611 731.152 476.331 730.912C477.051 730.672 477.603 730.324 477.987 729.868C478.395 729.412 478.599 728.872 478.599 728.248C478.599 727.576 478.359 727 477.879 726.52C477.423 726.04 476.787 725.68 475.971 725.44C475.155 725.2 474.231 725.08 473.199 725.08C472.263 725.104 471.291 725.248 470.283 725.512C469.275 725.752 468.279 726.124 467.295 726.628L466.575 724.648C467.679 724.072 468.771 723.64 469.851 723.352C470.955 723.04 472.059 722.884 473.163 722.884C474.675 722.836 476.031 723.016 477.231 723.424C478.455 723.832 479.427 724.42 480.147 725.188C480.867 725.932 481.227 726.832 481.227 727.888C481.227 728.824 480.939 729.64 480.363 730.336C479.787 731.032 479.019 731.572 478.059 731.956C477.099 732.34 476.007 732.532 474.783 732.532L474.891 731.848C477.051 731.848 478.731 732.268 479.931 733.108C481.155 733.948 481.767 735.088 481.767 736.528C481.767 737.656 481.395 738.652 480.651 739.516C479.907 740.356 478.899 741.016 477.627 741.496C476.379 741.976 474.975 742.216 473.415 742.216ZM500.53 740.776V725.332H491.422L491.206 729.544C491.158 730.816 491.074 732.064 490.954 733.288C490.858 734.512 490.678 735.64 490.414 736.672C490.174 737.68 489.826 738.508 489.37 739.156C488.914 739.78 488.326 740.14 487.606 740.236L485.05 739.768C485.794 739.792 486.406 739.528 486.886 738.976C487.366 738.4 487.738 737.62 488.002 736.636C488.266 735.652 488.458 734.536 488.578 733.288C488.698 732.016 488.794 730.72 488.866 729.4L489.118 723.1H503.086V740.776H500.53ZM484.258 746.572V739.768H506.038V746.572H503.626V742H486.67V746.572H484.258ZM518.795 742.18C516.971 742.18 515.327 741.772 513.863 740.956C512.423 740.116 511.283 738.976 510.443 737.536C509.603 736.072 509.183 734.404 509.183 732.532C509.183 730.636 509.603 728.968 510.443 727.528C511.283 726.088 512.423 724.96 513.863 724.144C515.303 723.328 516.947 722.92 518.795 722.92C520.667 722.92 522.323 723.328 523.763 724.144C525.227 724.96 526.367 726.088 527.183 727.528C528.023 728.968 528.443 730.636 528.443 732.532C528.443 734.404 528.023 736.072 527.183 737.536C526.367 738.976 525.227 740.116 523.763 740.956C522.299 741.772 520.643 742.18 518.795 742.18ZM518.795 739.912C520.163 739.912 521.375 739.612 522.431 739.012C523.487 738.388 524.315 737.524 524.915 736.42C525.539 735.292 525.851 733.996 525.851 732.532C525.851 731.044 525.539 729.748 524.915 728.644C524.315 727.54 523.487 726.688 522.431 726.088C521.375 725.464 520.175 725.152 518.831 725.152C517.487 725.152 516.287 725.464 515.231 726.088C514.175 726.688 513.335 727.54 512.711 728.644C512.087 729.748 511.775 731.044 511.775 732.532C511.775 733.996 512.087 735.292 512.711 736.42C513.335 737.524 514.175 738.388 515.231 739.012C516.287 739.612 517.475 739.912 518.795 739.912ZM543.662 742.18C542.03 742.18 540.554 741.808 539.234 741.064C537.914 740.296 536.858 739.204 536.066 737.788C535.298 736.348 534.914 734.596 534.914 732.532C534.914 730.468 535.298 728.728 536.066 727.312C536.834 725.872 537.878 724.78 539.198 724.036C540.518 723.292 542.006 722.92 543.662 722.92C545.462 722.92 547.07 723.328 548.486 724.144C549.926 724.936 551.054 726.064 551.87 727.528C552.686 728.968 553.094 730.636 553.094 732.532C553.094 734.452 552.686 736.132 551.87 737.572C551.054 739.012 549.926 740.14 548.486 740.956C547.07 741.772 545.462 742.18 543.662 742.18ZM533.906 748.984V723.1H536.354V728.788L536.102 732.568L536.462 736.384V748.984H533.906ZM543.482 739.912C544.826 739.912 546.026 739.612 547.082 739.012C548.138 738.388 548.978 737.524 549.602 736.42C550.226 735.292 550.538 733.996 550.538 732.532C550.538 731.068 550.226 729.784 549.602 728.68C548.978 727.576 548.138 726.712 547.082 726.088C546.026 725.464 544.826 725.152 543.482 725.152C542.138 725.152 540.926 725.464 539.846 726.088C538.79 726.712 537.95 727.576 537.326 728.68C536.726 729.784 536.426 731.068 536.426 732.532C536.426 733.996 536.726 735.292 537.326 736.42C537.95 737.524 538.79 738.388 539.846 739.012C540.926 739.612 542.138 739.912 543.482 739.912ZM566.361 742.18C564.537 742.18 562.893 741.772 561.429 740.956C559.989 740.116 558.849 738.976 558.009 737.536C557.169 736.072 556.749 734.404 556.749 732.532C556.749 730.636 557.169 728.968 558.009 727.528C558.849 726.088 559.989 724.96 561.429 724.144C562.869 723.328 564.513 722.92 566.361 722.92C568.233 722.92 569.889 723.328 571.329 724.144C572.793 724.96 573.933 726.088 574.749 727.528C575.589 728.968 576.009 730.636 576.009 732.532C576.009 734.404 575.589 736.072 574.749 737.536C573.933 738.976 572.793 740.116 571.329 740.956C569.865 741.772 568.209 742.18 566.361 742.18ZM566.361 739.912C567.729 739.912 568.941 739.612 569.997 739.012C571.053 738.388 571.881 737.524 572.481 736.42C573.105 735.292 573.417 733.996 573.417 732.532C573.417 731.044 573.105 729.748 572.481 728.644C571.881 727.54 571.053 726.688 569.997 726.088C568.941 725.464 567.741 725.152 566.397 725.152C565.053 725.152 563.853 725.464 562.797 726.088C561.741 726.688 560.901 727.54 560.277 728.644C559.653 729.748 559.341 731.044 559.341 732.532C559.341 733.996 559.653 735.292 560.277 736.42C560.901 737.524 561.741 738.388 562.797 739.012C563.853 739.612 565.041 739.912 566.361 739.912ZM581.472 742V723.1H589.824C591.96 723.1 593.64 723.508 594.864 724.324C596.112 725.14 596.736 726.34 596.736 727.924C596.736 729.46 596.148 730.648 594.972 731.488C593.796 732.304 592.248 732.712 590.328 732.712L590.832 731.956C593.088 731.956 594.744 732.376 595.8 733.216C596.856 734.056 597.384 735.268 597.384 736.852C597.384 738.484 596.784 739.756 595.584 740.668C594.408 741.556 592.572 742 590.076 742H581.472ZM583.956 739.984H589.968C591.576 739.984 592.788 739.732 593.604 739.228C594.444 738.7 594.864 737.86 594.864 736.708C594.864 735.556 594.492 734.716 593.748 734.188C593.004 733.66 591.828 733.396 590.22 733.396H583.956V739.984ZM583.956 731.488H589.644C591.108 731.488 592.224 731.212 592.992 730.66C593.784 730.108 594.18 729.304 594.18 728.248C594.18 727.192 593.784 726.4 592.992 725.872C592.224 725.344 591.108 725.08 589.644 725.08H583.956V731.488ZM611.15 742.18C609.326 742.18 607.682 741.772 606.218 740.956C604.778 740.116 603.638 738.976 602.798 737.536C601.958 736.072 601.538 734.404 601.538 732.532C601.538 730.636 601.958 728.968 602.798 727.528C603.638 726.088 604.778 724.96 606.218 724.144C607.658 723.328 609.302 722.92 611.15 722.92C613.022 722.92 614.678 723.328 616.118 724.144C617.582 724.96 618.722 726.088 619.538 727.528C620.378 728.968 620.798 730.636 620.798 732.532C620.798 734.404 620.378 736.072 619.538 737.536C618.722 738.976 617.582 740.116 616.118 740.956C614.654 741.772 612.998 742.18 611.15 742.18ZM611.15 739.912C612.518 739.912 613.73 739.612 614.786 739.012C615.842 738.388 616.67 737.524 617.27 736.42C617.894 735.292 618.206 733.996 618.206 732.532C618.206 731.044 617.894 729.748 617.27 728.644C616.67 727.54 615.842 726.688 614.786 726.088C613.73 725.464 612.53 725.152 611.186 725.152C609.842 725.152 608.642 725.464 607.586 726.088C606.53 726.688 605.69 727.54 605.066 728.644C604.442 729.748 604.13 731.044 604.13 732.532C604.13 733.996 604.442 735.292 605.066 736.42C605.69 737.524 606.53 738.388 607.586 739.012C608.642 739.612 609.83 739.912 611.15 739.912ZM626.261 742V723.1H639.653V725.332H628.169L628.817 724.684V742H626.261ZM650.244 742.18C648.42 742.18 646.776 741.772 645.312 740.956C643.872 740.116 642.732 738.976 641.892 737.536C641.052 736.072 640.632 734.404 640.632 732.532C640.632 730.636 641.052 728.968 641.892 727.528C642.732 726.088 643.872 724.96 645.312 724.144C646.752 723.328 648.396 722.92 650.244 722.92C652.116 722.92 653.772 723.328 655.212 724.144C656.676 724.96 657.816 726.088 658.632 727.528C659.472 728.968 659.892 730.636 659.892 732.532C659.892 734.404 659.472 736.072 658.632 737.536C657.816 738.976 656.676 740.116 655.212 740.956C653.748 741.772 652.092 742.18 650.244 742.18ZM650.244 739.912C651.612 739.912 652.824 739.612 653.88 739.012C654.936 738.388 655.764 737.524 656.364 736.42C656.988 735.292 657.3 733.996 657.3 732.532C657.3 731.044 656.988 729.748 656.364 728.644C655.764 727.54 654.936 726.688 653.88 726.088C652.824 725.464 651.624 725.152 650.28 725.152C648.936 725.152 647.736 725.464 646.68 726.088C645.624 726.688 644.784 727.54 644.16 728.644C643.536 729.748 643.224 731.044 643.224 732.532C643.224 733.996 643.536 735.292 644.16 736.42C644.784 737.524 645.624 738.388 646.68 739.012C647.736 739.612 648.924 739.912 650.244 739.912ZM678.377 742V724.648L679.025 725.332H671.213V723.1H688.097V725.332H680.285L680.933 724.648V742H678.377ZM699.013 742.18C697.045 742.18 695.317 741.772 693.829 740.956C692.341 740.116 691.177 738.976 690.337 737.536C689.497 736.072 689.077 734.404 689.077 732.532C689.077 730.66 689.473 729.004 690.265 727.564C691.081 726.124 692.185 724.996 693.577 724.18C694.993 723.34 696.577 722.92 698.329 722.92C700.105 722.92 701.677 723.328 703.045 724.144C704.437 724.936 705.529 726.064 706.321 727.528C707.113 728.968 707.509 730.636 707.509 732.532C707.509 732.652 707.497 732.784 707.473 732.928C707.473 733.048 707.473 733.18 707.473 733.324H691.021V731.416H706.105L705.097 732.172C705.097 730.804 704.797 729.592 704.197 728.536C703.621 727.456 702.829 726.616 701.821 726.016C700.813 725.416 699.649 725.116 698.329 725.116C697.033 725.116 695.869 725.416 694.837 726.016C693.805 726.616 693.001 727.456 692.425 728.536C691.849 729.616 691.561 730.852 691.561 732.244V732.64C691.561 734.08 691.873 735.352 692.497 736.456C693.145 737.536 694.033 738.388 695.161 739.012C696.313 739.612 697.621 739.912 699.085 739.912C700.237 739.912 701.305 739.708 702.289 739.3C703.297 738.892 704.161 738.268 704.881 737.428L706.321 739.084C705.481 740.092 704.425 740.86 703.153 741.388C701.905 741.916 700.525 742.18 699.013 742.18ZM709.325 741.964L709.505 739.768C709.673 739.792 709.829 739.828 709.973 739.876C710.141 739.9 710.285 739.912 710.405 739.912C711.173 739.912 711.785 739.624 712.241 739.048C712.721 738.472 713.081 737.704 713.321 736.744C713.561 735.784 713.729 734.704 713.825 733.504C713.921 732.28 714.005 731.056 714.077 729.832L714.401 723.1H728.261V742H725.705V724.576L726.353 725.332H716.057L716.669 724.54L716.381 730.012C716.309 731.644 716.177 733.204 715.985 734.692C715.817 736.18 715.541 737.488 715.157 738.616C714.797 739.744 714.293 740.632 713.645 741.28C712.997 741.904 712.169 742.216 711.161 742.216C710.873 742.216 710.573 742.192 710.261 742.144C709.973 742.096 709.661 742.036 709.325 741.964ZM747.263 742V737.824L747.155 737.14V730.156C747.155 728.548 746.699 727.312 745.787 726.448C744.899 725.584 743.567 725.152 741.791 725.152C740.567 725.152 739.403 725.356 738.299 725.764C737.195 726.172 736.259 726.712 735.491 727.384L734.339 725.476C735.299 724.66 736.451 724.036 737.795 723.604C739.139 723.148 740.555 722.92 742.043 722.92C744.491 722.92 746.375 723.532 747.695 724.756C749.039 725.956 749.711 727.792 749.711 730.264V742H747.263ZM740.747 742.18C739.331 742.18 738.095 741.952 737.039 741.496C736.007 741.016 735.215 740.368 734.663 739.552C734.111 738.712 733.835 737.752 733.835 736.672C733.835 735.688 734.063 734.8 734.519 734.008C734.999 733.192 735.767 732.544 736.823 732.064C737.903 731.56 739.343 731.308 741.143 731.308H747.659V733.216H741.215C739.391 733.216 738.119 733.54 737.399 734.188C736.703 734.836 736.355 735.64 736.355 736.6C736.355 737.68 736.775 738.544 737.615 739.192C738.455 739.84 739.631 740.164 741.143 740.164C742.583 740.164 743.819 739.84 744.851 739.192C745.907 738.52 746.675 737.56 747.155 736.312L747.731 738.076C747.251 739.324 746.411 740.32 745.211 741.064C744.035 741.808 742.547 742.18 740.747 742.18Z" fill="black"/>
</svg>
