<svg width="520" height="310" viewBox="305 305 520 310" fill="none" xmlns="http://www.w3.org/2000/svg">
<path fill-rule="evenodd" clip-rule="evenodd" d="M575.34 374.25C639.891 374.971 700.115 316.628 755.093 340.173C809.006 363.263 812.463 418.455 793.606 460.501C778.004 495.29 707.185 505.578 666.852 528.83C633.556 548.025 610.691 587.549 568.363 593.699C518.318 600.972 470.033 590.426 427.98 570.198C376.226 545.303 359.552 503.679 343.639 460.534C316.072 385.793 323.727 344.488 398.776 328.039C461.423 326.461 508.279 373.502 575.34 374.25Z" fill="#B5D5A1"/>
<path d="M468.398 396.495V398.045C501.913 413.289 535.446 435.512 557.81 459.537C557.185 460.612 556.552 461.683 555.912 462.749C528.603 442.762 497.869 428.35 468.398 419.282V442.773C491.307 447.95 515.657 456.816 538.864 469.999C522.383 463.92 504.204 460.205 485.481 459.677C503.516 465.875 523.095 473.887 541.835 483.593C522.021 509.623 497.56 529.021 468.933 536.727C505.015 546.884 555.732 537.677 588.141 513.41C597.559 521.151 605.86 529.491 612.505 538.402V536.827C609.243 525.845 604.532 514.938 598.711 504.288C602.623 500.368 606.092 496.158 609.025 491.669C591.877 506.836 570.005 515.625 542.992 523.915C566.873 510.264 587.493 493.257 603.665 475.287C606.717 471.663 609.665 467.952 612.505 464.16V452.457C589.592 482.74 554.982 509.974 520.264 524.406C557.536 503.541 597.329 463.533 610.942 425.783C599.232 442.451 585.168 457.268 570.156 469.92C587.682 447.391 603.171 423.507 612.505 404.089V396.495H585.074C578.861 416.428 570.903 435.718 561.288 453.353C539.238 429.654 513.658 409.676 490.221 396.495L468.398 396.495ZM518.886 524.91H519.036C518.938 524.95 518.841 524.991 518.743 525.031C518.791 524.991 518.839 524.95 518.886 524.91Z" fill="black"/>
</svg>
